<svg width="600" height="600" viewBox="0 0 600 600" fill="none" xmlns="http://www.w3.org/2000/svg">
<g filter="url(#filter0_d_275_122)">
<g clip-path="url(#clip0_275_122)">
<path d="M548.75 275C548.75 137.619 437.381 26.25 300 26.25C162.619 26.25 51.25 137.619 51.25 275C51.25 412.381 162.619 523.75 300 523.75C437.381 523.75 548.75 412.381 548.75 275Z" stroke="#293F11" stroke-width="2.5"/>
<path d="M337.801 229L358.33 237.011H363.337H375.603H388.621L404.643 238.763L421.667 241.517L438.941 244.271L453.461 247.025H456.965L463.224 251.281H464.977L472.872 254.213C473.393 254.407 473.739 254.904 473.739 255.459C473.739 256.193 474.334 256.788 475.068 256.788H475.418C476.073 256.788 476.668 257.169 476.943 257.764L477.667 259.334C477.878 259.79 478.252 260.15 478.715 260.343L480.263 260.988C480.735 261.185 481.114 261.555 481.322 262.023L481.561 262.56C481.835 263.176 481.78 263.889 481.416 264.457L479.747 267.052V269.055L476.492 272.31L469.483 277.066L463.224 281.572L456.965 285.077L449.205 287.581L441.694 289.583L436.688 292.087L431.681 293.339L420.665 294.59L410.151 295.842H399.386L395.13 296.843L386.118 298.846L374.101 300.599L365.089 302.852L361.083 306.106L358.33 306.857L353.323 309.361L350.319 310.612L344.561 312.114L337.801 314.117L334.297 316.37L330.291 318.874L326.536 320.626L322.53 321.127L318.525 320.626H315.02H312.266L313.768 316.37H311.014L309.512 315.369L306.508 316.37L304.756 315.369L306.508 312.114L305.006 309.361V306.106L296.745 304.604L288.984 306.106L278.47 306.857L252.684 308.109L234.91 308.86H221.141L206.12 309.861L188.846 311.363H180.084L171.072 308.86L168.318 302.852L170.321 299.848H165.814L161.809 303.853L148.29 311.363L141.531 313.116L137.526 310.112L130.266 301.35L124.758 293.839L121.253 277.567L119 267.553V257.039L124.758 260.543L130.266 261.044L137.526 263.047L147.539 267.553L153.047 268.805L149.292 263.047L147.289 258.791L146.788 257.039L146.538 254.786L148.29 254.034L148.791 252.532L151.044 251.781L151.294 250.279L154.549 248.777L156.301 247.776L159.055 247.025L161.809 244.772H165.814L168.318 242.769L178.832 245.523L171.072 242.769L185.341 244.521L176.83 242.018L179.083 240.516L195.856 243.77L183.088 240.015L190.599 239.765L192.351 238.263L196.106 239.765L208.874 240.766L204.117 239.264L212.128 239.014L208.373 237.762L214.882 236.761L218.387 237.011L223.394 234.758L229.402 237.011L227.9 233.506L234.91 235.759L232.657 233.506L251.182 237.762L248.428 235.759H260.695L255.688 234.758L262.197 233.506H269.207L268.206 232.004L274.464 233.506L271.71 232.004H279.221L277.969 229.751L282.475 232.004L286.981 230.752H290.236H293.49L297.496 229.751H304.756H308.261L317.273 230.752H321.779L323.782 229.751L328.789 230.752L331.292 229.751L337.801 230.752V229Z" stroke="#293F11" stroke-width="4"/>
</g>
</g>
<defs>
<filter id="filter0_d_275_122" x="0" y="0" width="600" height="600" filterUnits="userSpaceOnUse" color-interpolation-filters="sRGB">
<feFlood flood-opacity="0" result="BackgroundImageFix"/>
<feColorMatrix in="SourceAlpha" type="matrix" values="0 0 0 0 0 0 0 0 0 0 0 0 0 0 0 0 0 0 127 0" result="hardAlpha"/>
<feOffset dy="25"/>
<feGaussianBlur stdDeviation="25"/>
<feColorMatrix type="matrix" values="0 0 0 0 0 0 0 0 0 0 0 0 0 0 0 0 0 0 0.15 0"/>
<feBlend mode="normal" in2="BackgroundImageFix" result="effect1_dropShadow_275_122"/>
<feBlend mode="normal" in="SourceGraphic" in2="effect1_dropShadow_275_122" result="shape"/>
</filter>
<clipPath id="clip0_275_122">
<rect width="500" height="500" fill="white" transform="translate(50 25)"/>
</clipPath>
</defs>
</svg>
